<svg width="21" height="16" viewBox="0 0 21 16" fill="none" xmlns="http://www.w3.org/2000/svg">
<path d="M8.77841 3.55811C8.66122 3.19944 8.50675 2.87806 8.31499 2.59397C8.12678 2.30633 7.90128 2.0613 7.63849 1.85889C7.37926 1.65647 7.08452 1.502 6.75426 1.39546C6.42401 1.28893 6.06179 1.23566 5.66761 1.23566C5.02131 1.23566 4.43359 1.40257 3.90447 1.73637C3.37536 2.07018 2.95455 2.56201 2.64205 3.21187C2.32955 3.86173 2.1733 4.65896 2.1733 5.60356C2.1733 6.54816 2.33132 7.34539 2.64737 7.99525C2.96342 8.64511 3.39134 9.13694 3.93111 9.47075C4.47088 9.80455 5.07813 9.97146 5.75284 9.97146C6.37784 9.97146 6.92827 9.83829 7.40412 9.57195C7.88352 9.30207 8.25639 8.9221 8.52273 8.43204C8.79261 7.93843 8.92756 7.35782 8.92756 6.69021L9.33239 6.77543H6.05114V5.60356H10.206V6.77543C10.206 7.67387 10.0142 8.45512 9.63068 9.11918C9.25071 9.78325 8.72514 10.2982 8.05398 10.6639C7.38636 11.0261 6.61932 11.2073 5.75284 11.2073C4.78693 11.2073 3.93821 10.98 3.20668 10.5254C2.47869 10.0709 1.91051 9.42458 1.50213 8.58651C1.0973 7.74845 0.894886 6.75413 0.894886 5.60356C0.894886 4.74063 1.0103 3.96471 1.24112 3.27579C1.4755 2.58332 1.80575 1.99383 2.23189 1.50732C2.65803 1.02082 3.16229 0.647949 3.74467 0.388716C4.32706 0.129483 4.96804 -0.000133574 5.66761 -0.000133574C6.2429 -0.000133574 6.77912 0.0868692 7.27628 0.260875C7.77699 0.431329 8.22266 0.674582 8.61328 0.990633C9.00746 1.30313 9.33594 1.67778 9.59872 2.11457C9.86151 2.54781 10.0426 3.02899 10.142 3.55811H8.77841ZM12.1685 11.0581V0.149014H15.9824C16.7423 0.149014 17.3691 0.280406 17.8627 0.543191C18.3563 0.802423 18.7239 1.15221 18.9654 1.59255C19.2068 2.02934 19.3276 2.51407 19.3276 3.04674C19.3276 3.51549 19.2441 3.90257 19.0772 4.20796C18.9139 4.51336 18.6972 4.75484 18.4274 4.9324C18.161 5.10995 17.8716 5.24134 17.5591 5.32657V5.43311C17.8929 5.45441 18.2285 5.5716 18.5659 5.78467C18.9032 5.99774 19.1855 6.30313 19.4128 6.70086C19.6401 7.09859 19.7537 7.58509 19.7537 8.16038C19.7537 8.70725 19.6294 9.19909 19.3808 9.63588C19.1323 10.0727 18.7399 10.4189 18.2036 10.6746C17.6674 10.9303 16.9696 11.0581 16.1102 11.0581H12.1685ZM13.4895 9.88623H16.1102C16.9732 9.88623 17.5857 9.71933 17.948 9.38552C18.3137 9.04816 18.4966 8.63978 18.4966 8.16038C18.4966 7.79106 18.4025 7.45015 18.2143 7.13765C18.0261 6.8216 17.758 6.56947 17.41 6.38126C17.0619 6.1895 16.65 6.09362 16.1742 6.09362H13.4895V9.88623ZM13.4895 4.94305H15.9398C16.3375 4.94305 16.6962 4.86492 17.0158 4.70867C17.3389 4.55242 17.5946 4.33225 17.7828 4.04816C17.9746 3.76407 18.0705 3.43026 18.0705 3.04674C18.0705 2.56734 17.9036 2.16073 17.5698 1.82693C17.236 1.48957 16.7068 1.32089 15.9824 1.32089H13.4895V4.94305Z" fill="white"/>
<path d="M0 14.0411H20.606V15.0638H0V14.0411Z" fill="white"/>
</svg>
