<svg width="22" height="22" viewBox="0 0 22 22" fill="none" xmlns="http://www.w3.org/2000/svg">
<path d="M11 20.8543C5.56415 20.8543 1.14581 16.436 1.14581 11.0002C1.14581 5.56433 5.56415 1.146 11 1.146C16.4358 1.146 20.8541 5.56433 20.8541 11.0002C20.8541 16.436 16.4358 20.8543 11 20.8543ZM11 2.521C6.32498 2.521 2.52081 6.32516 2.52081 11.0002C2.52081 15.6752 6.32498 19.4793 11 19.4793C15.675 19.4793 19.4791 15.6752 19.4791 11.0002C19.4791 6.32516 15.675 2.521 11 2.521Z" fill="white"/>
<path d="M8.24997 19.9375H7.3333C6.95747 19.9375 6.6458 19.6258 6.6458 19.25C6.6458 18.8742 6.93914 18.5717 7.31497 18.5625C5.8758 13.6492 5.8758 8.35083 7.31497 3.4375C6.93914 3.42833 6.6458 3.12583 6.6458 2.75C6.6458 2.37417 6.95747 2.0625 7.3333 2.0625H8.24997C8.46997 2.0625 8.6808 2.1725 8.80914 2.34667C8.93747 2.53 8.97414 2.75917 8.9008 2.97C7.17747 8.14917 7.17747 13.8508 8.9008 19.0392C8.97414 19.25 8.93747 19.4792 8.80914 19.6625C8.6808 19.8275 8.46997 19.9375 8.24997 19.9375Z" fill="white"/>
<path d="M13.75 19.9375C13.6767 19.9375 13.6034 19.9283 13.53 19.9008C13.1725 19.7816 12.9709 19.3875 13.0992 19.03C14.8225 13.8508 14.8225 8.14913 13.0992 2.96079C12.98 2.60329 13.1725 2.20913 13.53 2.08996C13.8967 1.97079 14.2817 2.16329 14.4009 2.52079C16.225 7.98413 16.225 13.9975 14.4009 19.4516C14.3092 19.7541 14.0342 19.9375 13.75 19.9375Z" fill="white"/>
<path d="M11 15.7669C8.4425 15.7669 5.89417 15.4094 3.4375 14.6852C3.42833 15.0519 3.12583 15.3544 2.75 15.3544C2.37417 15.3544 2.0625 15.0427 2.0625 14.6669V13.7502C2.0625 13.5302 2.1725 13.3194 2.34667 13.1911C2.53 13.0627 2.75917 13.0261 2.97 13.0994C8.14917 14.8227 13.86 14.8227 19.0392 13.0994C19.25 13.0261 19.4792 13.0627 19.6625 13.1911C19.8458 13.3194 19.9467 13.5302 19.9467 13.7502V14.6669C19.9467 15.0427 19.635 15.3544 19.2592 15.3544C18.8833 15.3544 18.5808 15.0611 18.5717 14.6852C16.1058 15.4094 13.5575 15.7669 11 15.7669Z" fill="white"/>
<path d="M19.25 8.93742C19.1767 8.93742 19.1034 8.92825 19.03 8.90075C13.8509 7.17742 8.14003 7.17742 2.96086 8.90075C2.59419 9.01992 2.20919 8.82741 2.09003 8.46991C1.98003 8.10325 2.17253 7.71825 2.53003 7.59908C7.99336 5.77492 14.0067 5.77492 19.4609 7.59908C19.8184 7.71825 20.02 8.11242 19.8917 8.46991C19.8092 8.75408 19.5342 8.93742 19.25 8.93742Z" fill="white"/>
</svg>
